<svg width="211" height="212" viewBox="0 0 211 212" fill="none" xmlns="http://www.w3.org/2000/svg">
<path d="M149.856 109.224C148.939 109.224 148.187 108.877 147.6 108.184C147.013 107.491 146.72 106.493 146.72 105.192C146.72 103.88 147.088 102.819 147.824 102.008C148.571 101.187 149.493 100.776 150.592 100.776C151.701 100.776 152.699 101.085 153.584 101.704V107.4L153.744 109L152.688 109.08L152.416 107.64C151.819 108.696 150.965 109.224 149.856 109.224ZM147.936 105.16C147.936 106.12 148.139 106.856 148.544 107.368C148.949 107.88 149.467 108.136 150.096 108.136C150.736 108.136 151.275 107.821 151.712 107.192C152.149 106.552 152.368 105.651 152.368 104.488V102.264C151.835 101.997 151.264 101.864 150.656 101.864C149.867 101.864 149.216 102.173 148.704 102.792C148.192 103.4 147.936 104.189 147.936 105.16Z" fill="black"/>
<path d="M2.416 97.8V102.312C3.00267 101.288 3.86667 100.776 5.008 100.776C5.904 100.776 6.63467 101.123 7.2 101.816C7.776 102.509 8.064 103.512 8.064 104.824C8.064 106.125 7.69067 107.187 6.944 108.008C6.208 108.819 5.30667 109.224 4.24 109.224C3.17333 109.224 2.4 108.925 1.92 108.328C1.44 107.72 1.2 106.899 1.2 105.864V97.8H2.416ZM6.848 104.84C6.848 103.869 6.66667 103.133 6.304 102.632C5.94133 102.12 5.42933 101.864 4.768 101.864C4.11733 101.864 3.568 102.157 3.12 102.744C2.672 103.331 2.43733 104.232 2.416 105.448V105.864C2.416 106.536 2.55467 107.085 2.832 107.512C3.12 107.928 3.552 108.136 4.128 108.136C4.91733 108.136 5.568 107.832 6.08 107.224C6.592 106.605 6.848 105.811 6.848 104.84Z" fill="black"/>
<path d="M107.928 207.232C107.16 207.893 106.264 208.224 105.24 208.224C104.227 208.224 103.384 207.883 102.712 207.2C102.051 206.517 101.72 205.525 101.72 204.224C101.72 202.912 102.051 201.845 102.712 201.024C103.384 200.192 104.312 199.776 105.496 199.776C106.232 199.776 106.915 199.968 107.544 200.352L107.24 201.328C106.675 201.019 106.104 200.864 105.528 200.864C104.739 200.864 104.109 201.163 103.64 201.76C103.171 202.357 102.936 203.157 102.936 204.16C102.936 205.152 103.149 205.899 103.576 206.4C104.013 206.891 104.568 207.136 105.24 207.136C106.093 207.136 106.829 206.88 107.448 206.368L107.928 207.232Z" fill="black"/>
<line x1="18" y1="192.5" x2="210" y2="192.5" stroke="black"/>
<line x1="18.5" y1="1" x2="18.5" y2="193" stroke="black"/>
<line x1="18.3536" y1="0.646447" x2="210.354" y2="192.646" stroke="black"/>
<rect x="18.5" y="176.5" width="16" height="16" stroke="black"/>
</svg>
